<mxfile host="Electron" modified="2024-06-11T20:03:01.610Z" agent="Mozilla/5.0 (Windows NT 10.0; Win64; x64) AppleWebKit/537.36 (KHTML, like Gecko) draw.io/23.1.5 Chrome/120.0.6099.109 Electron/28.1.0 Safari/537.36" etag="ubgm6_YEiEkl0tKp_k5v" version="23.1.5" type="device" pages="3">
  <diagram name="Блок-схема кода" id="xtSai8mKgwNbJAHcX8Js">
    <mxGraphModel dx="860" dy="419" grid="1" gridSize="10" guides="1" tooltips="1" connect="1" arrows="1" fold="1" page="1" pageScale="1" pageWidth="827" pageHeight="1169" math="0" shadow="0">
      <root>
        <mxCell id="0" />
        <mxCell id="1" parent="0" />
        <mxCell id="PoWcBCuNAkFs6vKdBJYI-2" style="edgeStyle=orthogonalEdgeStyle;rounded=0;orthogonalLoop=1;jettySize=auto;html=1;entryX=0.5;entryY=0;entryDx=0;entryDy=0;" edge="1" parent="1" source="oMfr6G4tk0jLkz0cDD9G-1" target="PoWcBCuNAkFs6vKdBJYI-4">
          <mxGeometry relative="1" as="geometry">
            <mxPoint x="290" y="190" as="targetPoint" />
          </mxGeometry>
        </mxCell>
        <mxCell id="oMfr6G4tk0jLkz0cDD9G-1" value="начало" style="ellipse;whiteSpace=wrap;html=1;" parent="1" vertex="1">
          <mxGeometry x="182.5" y="60" width="215" height="80" as="geometry" />
        </mxCell>
        <mxCell id="PoWcBCuNAkFs6vKdBJYI-6" style="edgeStyle=orthogonalEdgeStyle;rounded=0;orthogonalLoop=1;jettySize=auto;html=1;entryX=0.5;entryY=0;entryDx=0;entryDy=0;" edge="1" parent="1" source="PoWcBCuNAkFs6vKdBJYI-4" target="PoWcBCuNAkFs6vKdBJYI-5">
          <mxGeometry relative="1" as="geometry" />
        </mxCell>
        <mxCell id="PoWcBCuNAkFs6vKdBJYI-4" value="Console.WriteLine(&quot;Введите элементы массива строк через пробел&quot;);" style="rounded=0;whiteSpace=wrap;html=1;" vertex="1" parent="1">
          <mxGeometry x="185" y="210" width="210" height="60" as="geometry" />
        </mxCell>
        <mxCell id="PoWcBCuNAkFs6vKdBJYI-10" value="" style="edgeStyle=orthogonalEdgeStyle;rounded=0;orthogonalLoop=1;jettySize=auto;html=1;" edge="1" parent="1" source="PoWcBCuNAkFs6vKdBJYI-5" target="PoWcBCuNAkFs6vKdBJYI-9">
          <mxGeometry relative="1" as="geometry" />
        </mxCell>
        <mxCell id="PoWcBCuNAkFs6vKdBJYI-5" value="string input = Console.ReadLine();" style="shape=parallelogram;perimeter=parallelogramPerimeter;whiteSpace=wrap;html=1;fixedSize=1;align=center;" vertex="1" parent="1">
          <mxGeometry x="180" y="320" width="220" height="60" as="geometry" />
        </mxCell>
        <mxCell id="PoWcBCuNAkFs6vKdBJYI-7" value="Текст, который выводится перед вводом слов" style="text;html=1;align=left;verticalAlign=middle;whiteSpace=wrap;rounded=0;" vertex="1" parent="1">
          <mxGeometry x="500" y="225" width="250" height="30" as="geometry" />
        </mxCell>
        <mxCell id="PoWcBCuNAkFs6vKdBJYI-8" value="&lt;div style=&quot;&quot;&gt;&lt;span style=&quot;background-color: initial;&quot;&gt;Чтение слов (строки) введеные пользователем&lt;/span&gt;&lt;/div&gt;" style="text;html=1;align=left;verticalAlign=middle;whiteSpace=wrap;rounded=0;" vertex="1" parent="1">
          <mxGeometry x="500" y="335" width="220" height="30" as="geometry" />
        </mxCell>
        <mxCell id="PoWcBCuNAkFs6vKdBJYI-13" value="" style="edgeStyle=orthogonalEdgeStyle;rounded=0;orthogonalLoop=1;jettySize=auto;html=1;" edge="1" parent="1" source="PoWcBCuNAkFs6vKdBJYI-9" target="PoWcBCuNAkFs6vKdBJYI-12">
          <mxGeometry relative="1" as="geometry" />
        </mxCell>
        <mxCell id="PoWcBCuNAkFs6vKdBJYI-9" value="string[] inputArray = input.Split(&#39; &quot;);" style="whiteSpace=wrap;html=1;" vertex="1" parent="1">
          <mxGeometry x="177.5" y="450" width="225" height="60" as="geometry" />
        </mxCell>
        <mxCell id="PoWcBCuNAkFs6vKdBJYI-11" value="&lt;div style=&quot;&quot;&gt;Создание массива inputArray, который равен строке input ( с помощью Split разделяет на элементы массива строку input, каждый новый элемент массива появляестя после каждого пробела&lt;/div&gt;" style="text;html=1;align=left;verticalAlign=middle;whiteSpace=wrap;rounded=0;" vertex="1" parent="1">
          <mxGeometry x="500" y="465" width="280" height="55" as="geometry" />
        </mxCell>
        <mxCell id="PoWcBCuNAkFs6vKdBJYI-17" value="" style="edgeStyle=orthogonalEdgeStyle;rounded=0;orthogonalLoop=1;jettySize=auto;html=1;" edge="1" parent="1" source="PoWcBCuNAkFs6vKdBJYI-12" target="PoWcBCuNAkFs6vKdBJYI-16">
          <mxGeometry relative="1" as="geometry" />
        </mxCell>
        <mxCell id="PoWcBCuNAkFs6vKdBJYI-12" value="int shortStringCount = CountShortString(inputArray);" style="whiteSpace=wrap;html=1;" vertex="1" parent="1">
          <mxGeometry x="180" y="590" width="220" height="60" as="geometry" />
        </mxCell>
        <mxCell id="PoWcBCuNAkFs6vKdBJYI-14" value="&lt;div style=&quot;&quot;&gt;Вызов метода для подсчета количества слов длиной &amp;lt;= 3 символа&lt;/div&gt;" style="text;html=1;align=left;verticalAlign=middle;whiteSpace=wrap;rounded=0;" vertex="1" parent="1">
          <mxGeometry x="500" y="585" width="280" height="55" as="geometry" />
        </mxCell>
        <mxCell id="PoWcBCuNAkFs6vKdBJYI-19" value="" style="edgeStyle=orthogonalEdgeStyle;rounded=0;orthogonalLoop=1;jettySize=auto;html=1;" edge="1" parent="1" source="PoWcBCuNAkFs6vKdBJYI-16">
          <mxGeometry relative="1" as="geometry">
            <mxPoint x="290" y="870" as="targetPoint" />
          </mxGeometry>
        </mxCell>
        <mxCell id="PoWcBCuNAkFs6vKdBJYI-16" value="string[] resultArray = CreateShortStringsArray(inputArray, shortStringCount);" style="whiteSpace=wrap;html=1;" vertex="1" parent="1">
          <mxGeometry x="180" y="730" width="220" height="60" as="geometry" />
        </mxCell>
        <mxCell id="PoWcBCuNAkFs6vKdBJYI-20" value="&lt;div style=&quot;&quot;&gt;Создание нового массива с помощью метода, в котором будут записаны слова длиной &amp;lt;= 3 символа&lt;/div&gt;" style="text;html=1;align=left;verticalAlign=middle;whiteSpace=wrap;rounded=0;" vertex="1" parent="1">
          <mxGeometry x="500" y="730" width="280" height="55" as="geometry" />
        </mxCell>
        <mxCell id="PoWcBCuNAkFs6vKdBJYI-25" value="" style="edgeStyle=orthogonalEdgeStyle;rounded=0;orthogonalLoop=1;jettySize=auto;html=1;" edge="1" parent="1" source="PoWcBCuNAkFs6vKdBJYI-21" target="PoWcBCuNAkFs6vKdBJYI-24">
          <mxGeometry relative="1" as="geometry" />
        </mxCell>
        <mxCell id="PoWcBCuNAkFs6vKdBJYI-21" value="PrintResultArray(resultArray);" style="shape=document;whiteSpace=wrap;html=1;boundedLbl=1;" vertex="1" parent="1">
          <mxGeometry x="180" y="870" width="220" height="80" as="geometry" />
        </mxCell>
        <mxCell id="PoWcBCuNAkFs6vKdBJYI-23" value="&lt;div style=&quot;&quot;&gt;Вызов метода для вывода на экран слов, которые &amp;lt;= 3 символам&lt;/div&gt;" style="text;html=1;align=left;verticalAlign=middle;whiteSpace=wrap;rounded=0;" vertex="1" parent="1">
          <mxGeometry x="500" y="870" width="280" height="55" as="geometry" />
        </mxCell>
        <mxCell id="PoWcBCuNAkFs6vKdBJYI-24" value="Конец" style="ellipse;whiteSpace=wrap;html=1;" vertex="1" parent="1">
          <mxGeometry x="180" y="1030" width="220" height="80" as="geometry" />
        </mxCell>
      </root>
    </mxGraphModel>
  </diagram>
  <diagram id="4AYVfq4wk7vpiGDotgHi" name="CountShortStrings">
    <mxGraphModel dx="782" dy="381" grid="1" gridSize="10" guides="1" tooltips="1" connect="1" arrows="1" fold="1" page="1" pageScale="1" pageWidth="827" pageHeight="1169" math="0" shadow="0">
      <root>
        <mxCell id="0" />
        <mxCell id="1" parent="0" />
        <mxCell id="uU963peioneaOHXmDbjq-5" value="" style="edgeStyle=orthogonalEdgeStyle;rounded=0;orthogonalLoop=1;jettySize=auto;html=1;" edge="1" parent="1" source="uU963peioneaOHXmDbjq-2" target="uU963peioneaOHXmDbjq-4">
          <mxGeometry relative="1" as="geometry" />
        </mxCell>
        <mxCell id="uU963peioneaOHXmDbjq-2" value="начало" style="ellipse;whiteSpace=wrap;html=1;" vertex="1" parent="1">
          <mxGeometry x="206" y="89" width="120" height="80" as="geometry" />
        </mxCell>
        <mxCell id="uU963peioneaOHXmDbjq-11" value="" style="edgeStyle=orthogonalEdgeStyle;rounded=0;orthogonalLoop=1;jettySize=auto;html=1;" edge="1" parent="1" source="uU963peioneaOHXmDbjq-4" target="uU963peioneaOHXmDbjq-10">
          <mxGeometry relative="1" as="geometry" />
        </mxCell>
        <mxCell id="uU963peioneaOHXmDbjq-4" value="static int CountShortStrings(string[] inputArray)" style="whiteSpace=wrap;html=1;" vertex="1" parent="1">
          <mxGeometry x="151" y="254" width="230" height="60" as="geometry" />
        </mxCell>
        <mxCell id="uU963peioneaOHXmDbjq-7" value="&lt;br&gt;&lt;span style=&quot;color: rgb(0, 0, 0); font-family: Helvetica; font-size: 12px; font-style: normal; font-variant-ligatures: normal; font-variant-caps: normal; font-weight: 400; letter-spacing: normal; orphans: 2; text-align: center; text-indent: 0px; text-transform: none; widows: 2; word-spacing: 0px; -webkit-text-stroke-width: 0px; background-color: rgb(251, 251, 251); text-decoration-thickness: initial; text-decoration-style: initial; text-decoration-color: initial; float: none; display: inline !important;&quot;&gt;Объявили метод с одним аргументом, который является массивом строк&lt;/span&gt;&lt;div&gt;&lt;br/&gt;&lt;/div&gt;" style="text;html=1;align=center;verticalAlign=middle;whiteSpace=wrap;rounded=0;" vertex="1" parent="1">
          <mxGeometry x="556" y="244" width="240" height="80" as="geometry" />
        </mxCell>
        <mxCell id="uU963peioneaOHXmDbjq-14" style="edgeStyle=orthogonalEdgeStyle;rounded=0;orthogonalLoop=1;jettySize=auto;html=1;entryX=0.5;entryY=0;entryDx=0;entryDy=0;" edge="1" parent="1" source="uU963peioneaOHXmDbjq-10" target="uU963peioneaOHXmDbjq-17">
          <mxGeometry relative="1" as="geometry">
            <mxPoint x="266" y="499" as="targetPoint" />
          </mxGeometry>
        </mxCell>
        <mxCell id="uU963peioneaOHXmDbjq-10" value="int count = 0;" style="whiteSpace=wrap;html=1;" vertex="1" parent="1">
          <mxGeometry x="151" y="359" width="230" height="60" as="geometry" />
        </mxCell>
        <mxCell id="uU963peioneaOHXmDbjq-12" value="Объявление переменной count для хранения количества слов, длина которых &amp;lt;= 3 символа. Сейчас равна 0&lt;div&gt;&lt;br&gt;&lt;/div&gt;" style="text;html=1;align=center;verticalAlign=middle;whiteSpace=wrap;rounded=0;" vertex="1" parent="1">
          <mxGeometry x="556" y="349" width="240" height="80" as="geometry" />
        </mxCell>
        <mxCell id="uU963peioneaOHXmDbjq-19" style="edgeStyle=orthogonalEdgeStyle;rounded=0;orthogonalLoop=1;jettySize=auto;html=1;entryX=0.5;entryY=0;entryDx=0;entryDy=0;" edge="1" parent="1" source="uU963peioneaOHXmDbjq-17" target="uU963peioneaOHXmDbjq-18">
          <mxGeometry relative="1" as="geometry" />
        </mxCell>
        <mxCell id="uU963peioneaOHXmDbjq-33" value="" style="edgeStyle=orthogonalEdgeStyle;rounded=0;orthogonalLoop=1;jettySize=auto;html=1;" edge="1" parent="1" source="uU963peioneaOHXmDbjq-17" target="uU963peioneaOHXmDbjq-32">
          <mxGeometry relative="1" as="geometry">
            <Array as="points">
              <mxPoint x="506" y="519" />
              <mxPoint x="506" y="919" />
            </Array>
          </mxGeometry>
        </mxCell>
        <mxCell id="uU963peioneaOHXmDbjq-17" value="string str in inputArray" style="shape=hexagon;perimeter=hexagonPerimeter2;whiteSpace=wrap;html=1;fixedSize=1;" vertex="1" parent="1">
          <mxGeometry x="156" y="479" width="220" height="80" as="geometry" />
        </mxCell>
        <mxCell id="uU963peioneaOHXmDbjq-26" value="" style="edgeStyle=orthogonalEdgeStyle;rounded=0;orthogonalLoop=1;jettySize=auto;html=1;" edge="1" parent="1" source="uU963peioneaOHXmDbjq-18" target="uU963peioneaOHXmDbjq-25">
          <mxGeometry relative="1" as="geometry" />
        </mxCell>
        <mxCell id="uU963peioneaOHXmDbjq-30" style="edgeStyle=orthogonalEdgeStyle;rounded=0;orthogonalLoop=1;jettySize=auto;html=1;entryX=0;entryY=0.5;entryDx=0;entryDy=0;exitX=0;exitY=0.5;exitDx=0;exitDy=0;" edge="1" parent="1" source="uU963peioneaOHXmDbjq-18" target="uU963peioneaOHXmDbjq-17">
          <mxGeometry relative="1" as="geometry">
            <Array as="points">
              <mxPoint x="36" y="674" />
              <mxPoint x="36" y="519" />
            </Array>
          </mxGeometry>
        </mxCell>
        <mxCell id="uU963peioneaOHXmDbjq-18" value="str.Length &amp;lt;= 3" style="rhombus;whiteSpace=wrap;html=1;" vertex="1" parent="1">
          <mxGeometry x="183.5" y="619" width="165" height="110" as="geometry" />
        </mxCell>
        <mxCell id="uU963peioneaOHXmDbjq-21" value="Перебор всех строк в массиве inputArray с помощью цикла foreach" style="text;html=1;align=center;verticalAlign=middle;whiteSpace=wrap;rounded=0;" vertex="1" parent="1">
          <mxGeometry x="556" y="469" width="240" height="80" as="geometry" />
        </mxCell>
        <mxCell id="uU963peioneaOHXmDbjq-22" value="Проверка, если длина текущей строки меньше или равна 3." style="text;html=1;align=center;verticalAlign=middle;whiteSpace=wrap;rounded=0;" vertex="1" parent="1">
          <mxGeometry x="556" y="634" width="240" height="80" as="geometry" />
        </mxCell>
        <mxCell id="uU963peioneaOHXmDbjq-29" style="edgeStyle=orthogonalEdgeStyle;rounded=0;orthogonalLoop=1;jettySize=auto;html=1;entryX=0;entryY=0.5;entryDx=0;entryDy=0;" edge="1" parent="1" source="uU963peioneaOHXmDbjq-25" target="uU963peioneaOHXmDbjq-17">
          <mxGeometry relative="1" as="geometry">
            <mxPoint x="36" y="519" as="targetPoint" />
            <Array as="points">
              <mxPoint x="36" y="789" />
              <mxPoint x="36" y="519" />
            </Array>
          </mxGeometry>
        </mxCell>
        <mxCell id="uU963peioneaOHXmDbjq-25" value="count++;" style="whiteSpace=wrap;html=1;" vertex="1" parent="1">
          <mxGeometry x="366" y="759" width="120" height="60" as="geometry" />
        </mxCell>
        <mxCell id="uU963peioneaOHXmDbjq-27" value="Да" style="text;html=1;align=center;verticalAlign=middle;resizable=0;points=[];autosize=1;strokeColor=none;fillColor=none;" vertex="1" parent="1">
          <mxGeometry x="366" y="634" width="40" height="30" as="geometry" />
        </mxCell>
        <mxCell id="uU963peioneaOHXmDbjq-28" value="увеличение переменной count на 1" style="text;html=1;align=center;verticalAlign=middle;whiteSpace=wrap;rounded=0;" vertex="1" parent="1">
          <mxGeometry x="556" y="749" width="240" height="80" as="geometry" />
        </mxCell>
        <mxCell id="uU963peioneaOHXmDbjq-31" value="Нет" style="text;html=1;align=center;verticalAlign=middle;resizable=0;points=[];autosize=1;strokeColor=none;fillColor=none;" vertex="1" parent="1">
          <mxGeometry x="66" y="637" width="40" height="30" as="geometry" />
        </mxCell>
        <mxCell id="uU963peioneaOHXmDbjq-35" value="" style="edgeStyle=orthogonalEdgeStyle;rounded=0;orthogonalLoop=1;jettySize=auto;html=1;entryX=0.5;entryY=0;entryDx=0;entryDy=0;" edge="1" parent="1" source="uU963peioneaOHXmDbjq-32" target="uU963peioneaOHXmDbjq-36">
          <mxGeometry relative="1" as="geometry">
            <mxPoint x="270" y="1019" as="targetPoint" />
          </mxGeometry>
        </mxCell>
        <mxCell id="uU963peioneaOHXmDbjq-32" value="return count;" style="whiteSpace=wrap;html=1;" vertex="1" parent="1">
          <mxGeometry x="210" y="889" width="120" height="60" as="geometry" />
        </mxCell>
        <mxCell id="uU963peioneaOHXmDbjq-36" value="Конец" style="ellipse;whiteSpace=wrap;html=1;" vertex="1" parent="1">
          <mxGeometry x="210" y="1039" width="120" height="80" as="geometry" />
        </mxCell>
        <mxCell id="kEd8RPfrdCOfX57-4l64-1" value="возврат количества слов, которые меньше или равны 3 символам" style="text;html=1;align=center;verticalAlign=middle;whiteSpace=wrap;rounded=0;" vertex="1" parent="1">
          <mxGeometry x="556" y="879" width="240" height="80" as="geometry" />
        </mxCell>
      </root>
    </mxGraphModel>
  </diagram>
  <diagram id="of-Pjz_ZvakaLb1dP2Vw" name="CreateShortStringsArray">
    <mxGraphModel dx="3694" dy="2567" grid="1" gridSize="10" guides="1" tooltips="1" connect="1" arrows="1" fold="1" page="1" pageScale="1" pageWidth="827" pageHeight="1169" math="0" shadow="0">
      <root>
        <mxCell id="0" />
        <mxCell id="1" parent="0" />
        <mxCell id="3qOUBMvrSRp052vf4XBV-3" value="" style="edgeStyle=orthogonalEdgeStyle;rounded=0;orthogonalLoop=1;jettySize=auto;html=1;" edge="1" parent="1" source="3qOUBMvrSRp052vf4XBV-1" target="3qOUBMvrSRp052vf4XBV-2">
          <mxGeometry relative="1" as="geometry" />
        </mxCell>
        <mxCell id="3qOUBMvrSRp052vf4XBV-1" value="начало" style="ellipse;whiteSpace=wrap;html=1;" vertex="1" parent="1">
          <mxGeometry x="-610" y="-1169" width="120" height="80" as="geometry" />
        </mxCell>
        <mxCell id="JSoUtLN1sq_0F0DIzB5n-2" value="" style="edgeStyle=orthogonalEdgeStyle;rounded=0;orthogonalLoop=1;jettySize=auto;html=1;" edge="1" parent="1" source="3qOUBMvrSRp052vf4XBV-2" target="JSoUtLN1sq_0F0DIzB5n-1">
          <mxGeometry relative="1" as="geometry" />
        </mxCell>
        <mxCell id="3qOUBMvrSRp052vf4XBV-2" value="&lt;p&gt;static string[] CreateShortStringsArray(string[] inputArray, int count)&lt;span style=&quot;&quot;&gt;&lt;/span&gt;&lt;br&gt;&lt;/p&gt;" style="whiteSpace=wrap;html=1;" vertex="1" parent="1">
          <mxGeometry x="-665" y="-1049" width="230" height="60" as="geometry" />
        </mxCell>
        <mxCell id="MrH3Jw0gB8Yfx5TGmyDV-1" value="Объявили метод, который создает массив строк с двумя аргументами&amp;nbsp;" style="text;html=1;align=center;verticalAlign=middle;whiteSpace=wrap;rounded=0;" vertex="1" parent="1">
          <mxGeometry x="-380" y="-1049" width="280" height="60" as="geometry" />
        </mxCell>
        <mxCell id="JSoUtLN1sq_0F0DIzB5n-5" value="" style="edgeStyle=orthogonalEdgeStyle;rounded=0;orthogonalLoop=1;jettySize=auto;html=1;" edge="1" parent="1" source="JSoUtLN1sq_0F0DIzB5n-1" target="JSoUtLN1sq_0F0DIzB5n-4">
          <mxGeometry relative="1" as="geometry" />
        </mxCell>
        <mxCell id="JSoUtLN1sq_0F0DIzB5n-1" value="&lt;p&gt;string[] resultArray = new string[count];&lt;span style=&quot;&quot;&gt;&lt;/span&gt;&lt;br&gt;&lt;/p&gt;" style="whiteSpace=wrap;html=1;" vertex="1" parent="1">
          <mxGeometry x="-665" y="-929" width="230" height="60" as="geometry" />
        </mxCell>
        <mxCell id="JSoUtLN1sq_0F0DIzB5n-3" value="Объявление и инициализация нового массива строк resultArray размером count" style="text;html=1;align=center;verticalAlign=middle;whiteSpace=wrap;rounded=0;" vertex="1" parent="1">
          <mxGeometry x="-380" y="-925" width="280" height="60" as="geometry" />
        </mxCell>
        <mxCell id="JC9jwDuVzXXAUm34xZrY-1" style="edgeStyle=orthogonalEdgeStyle;rounded=0;orthogonalLoop=1;jettySize=auto;html=1;entryX=0.5;entryY=0;entryDx=0;entryDy=0;" edge="1" parent="1" source="JSoUtLN1sq_0F0DIzB5n-4" target="JSoUtLN1sq_0F0DIzB5n-8">
          <mxGeometry relative="1" as="geometry" />
        </mxCell>
        <mxCell id="JSoUtLN1sq_0F0DIzB5n-4" value="&lt;p&gt;int index = 0:&lt;/p&gt;" style="whiteSpace=wrap;html=1;" vertex="1" parent="1">
          <mxGeometry x="-665" y="-809" width="230" height="60" as="geometry" />
        </mxCell>
        <mxCell id="JSoUtLN1sq_0F0DIzB5n-7" value="&amp;nbsp;Объявление переменной index для отслеживания текущей позиции в resultArray" style="text;html=1;align=center;verticalAlign=middle;whiteSpace=wrap;rounded=0;" vertex="1" parent="1">
          <mxGeometry x="-380" y="-809" width="280" height="60" as="geometry" />
        </mxCell>
        <mxCell id="o2pPIA6kvlXa8-K8Dds3-2" value="" style="edgeStyle=orthogonalEdgeStyle;rounded=0;orthogonalLoop=1;jettySize=auto;html=1;" edge="1" parent="1" source="JSoUtLN1sq_0F0DIzB5n-8" target="o2pPIA6kvlXa8-K8Dds3-1">
          <mxGeometry relative="1" as="geometry" />
        </mxCell>
        <mxCell id="wICCiyBY5Dh3nlVd2eu4-14" value="" style="edgeStyle=orthogonalEdgeStyle;rounded=0;orthogonalLoop=1;jettySize=auto;html=1;exitX=1;exitY=0.5;exitDx=0;exitDy=0;entryX=1;entryY=0.5;entryDx=0;entryDy=0;" edge="1" parent="1" source="JSoUtLN1sq_0F0DIzB5n-8" target="wICCiyBY5Dh3nlVd2eu4-13">
          <mxGeometry relative="1" as="geometry">
            <Array as="points">
              <mxPoint x="-410" y="-649" />
              <mxPoint x="-410" y="-180" />
              <mxPoint x="-430" y="-180" />
            </Array>
          </mxGeometry>
        </mxCell>
        <mxCell id="JSoUtLN1sq_0F0DIzB5n-8" value="string str in inputArray" style="shape=hexagon;perimeter=hexagonPerimeter2;whiteSpace=wrap;html=1;fixedSize=1;" vertex="1" parent="1">
          <mxGeometry x="-660" y="-689" width="220" height="80" as="geometry" />
        </mxCell>
        <mxCell id="JC9jwDuVzXXAUm34xZrY-2" value="Перебор всех строк в массиве inputArray с помощью цикла foreach" style="text;html=1;align=center;verticalAlign=middle;whiteSpace=wrap;rounded=0;" vertex="1" parent="1">
          <mxGeometry x="-380" y="-679" width="280" height="60" as="geometry" />
        </mxCell>
        <mxCell id="wICCiyBY5Dh3nlVd2eu4-3" value="" style="edgeStyle=orthogonalEdgeStyle;rounded=0;orthogonalLoop=1;jettySize=auto;html=1;" edge="1" parent="1" source="o2pPIA6kvlXa8-K8Dds3-1" target="wICCiyBY5Dh3nlVd2eu4-2">
          <mxGeometry relative="1" as="geometry" />
        </mxCell>
        <mxCell id="wICCiyBY5Dh3nlVd2eu4-10" style="edgeStyle=orthogonalEdgeStyle;rounded=0;orthogonalLoop=1;jettySize=auto;html=1;exitX=0;exitY=0.5;exitDx=0;exitDy=0;" edge="1" parent="1" source="o2pPIA6kvlXa8-K8Dds3-1">
          <mxGeometry relative="1" as="geometry">
            <mxPoint x="-660" y="-649" as="targetPoint" />
            <Array as="points">
              <mxPoint x="-780" y="-521" />
              <mxPoint x="-780" y="-649" />
            </Array>
          </mxGeometry>
        </mxCell>
        <mxCell id="o2pPIA6kvlXa8-K8Dds3-1" value="str.Length &amp;lt;= 3" style="rhombus;whiteSpace=wrap;html=1;" vertex="1" parent="1">
          <mxGeometry x="-650" y="-561" width="200" height="80" as="geometry" />
        </mxCell>
        <mxCell id="wICCiyBY5Dh3nlVd2eu4-1" value="Проверка, если длина текущей строки меньше или равна 3." style="text;html=1;align=center;verticalAlign=middle;whiteSpace=wrap;rounded=0;" vertex="1" parent="1">
          <mxGeometry x="-380" y="-551" width="280" height="60" as="geometry" />
        </mxCell>
        <mxCell id="wICCiyBY5Dh3nlVd2eu4-7" value="" style="edgeStyle=orthogonalEdgeStyle;rounded=0;orthogonalLoop=1;jettySize=auto;html=1;" edge="1" parent="1" source="wICCiyBY5Dh3nlVd2eu4-2" target="wICCiyBY5Dh3nlVd2eu4-6">
          <mxGeometry relative="1" as="geometry" />
        </mxCell>
        <mxCell id="wICCiyBY5Dh3nlVd2eu4-2" value="resultArray[index] = str;" style="whiteSpace=wrap;html=1;" vertex="1" parent="1">
          <mxGeometry x="-670" y="-419" width="240" height="60" as="geometry" />
        </mxCell>
        <mxCell id="wICCiyBY5Dh3nlVd2eu4-4" value="Да" style="text;html=1;align=center;verticalAlign=middle;resizable=0;points=[];autosize=1;strokeColor=none;fillColor=none;" vertex="1" parent="1">
          <mxGeometry x="-530" y="-469" width="40" height="30" as="geometry" />
        </mxCell>
        <mxCell id="wICCiyBY5Dh3nlVd2eu4-5" value="заполнение resultArray текущим словом" style="text;html=1;align=center;verticalAlign=middle;whiteSpace=wrap;rounded=0;" vertex="1" parent="1">
          <mxGeometry x="-370" y="-419" width="280" height="60" as="geometry" />
        </mxCell>
        <mxCell id="wICCiyBY5Dh3nlVd2eu4-9" style="edgeStyle=orthogonalEdgeStyle;rounded=0;orthogonalLoop=1;jettySize=auto;html=1;entryX=0;entryY=0.5;entryDx=0;entryDy=0;" edge="1" parent="1" source="wICCiyBY5Dh3nlVd2eu4-6" target="JSoUtLN1sq_0F0DIzB5n-8">
          <mxGeometry relative="1" as="geometry">
            <Array as="points">
              <mxPoint x="-550" y="-230" />
              <mxPoint x="-780" y="-230" />
              <mxPoint x="-780" y="-649" />
            </Array>
          </mxGeometry>
        </mxCell>
        <mxCell id="wICCiyBY5Dh3nlVd2eu4-6" value="index++;" style="whiteSpace=wrap;html=1;" vertex="1" parent="1">
          <mxGeometry x="-670" y="-310" width="240" height="60" as="geometry" />
        </mxCell>
        <mxCell id="wICCiyBY5Dh3nlVd2eu4-8" value="Увеличение индекса для следующей позиции в resultArray" style="text;html=1;align=center;verticalAlign=middle;whiteSpace=wrap;rounded=0;" vertex="1" parent="1">
          <mxGeometry x="-370" y="-310" width="280" height="60" as="geometry" />
        </mxCell>
        <mxCell id="wICCiyBY5Dh3nlVd2eu4-11" value="нет" style="text;html=1;align=center;verticalAlign=middle;resizable=0;points=[];autosize=1;strokeColor=none;fillColor=none;" vertex="1" parent="1">
          <mxGeometry x="-720" y="-561" width="40" height="30" as="geometry" />
        </mxCell>
        <mxCell id="wICCiyBY5Dh3nlVd2eu4-18" style="edgeStyle=orthogonalEdgeStyle;rounded=0;orthogonalLoop=1;jettySize=auto;html=1;entryX=0.5;entryY=0;entryDx=0;entryDy=0;" edge="1" parent="1" source="wICCiyBY5Dh3nlVd2eu4-13" target="wICCiyBY5Dh3nlVd2eu4-16">
          <mxGeometry relative="1" as="geometry" />
        </mxCell>
        <mxCell id="wICCiyBY5Dh3nlVd2eu4-13" value="return resultArray;" style="whiteSpace=wrap;html=1;" vertex="1" parent="1">
          <mxGeometry x="-670" y="-210" width="240" height="50" as="geometry" />
        </mxCell>
        <mxCell id="wICCiyBY5Dh3nlVd2eu4-15" value="Возврат нового массива слов" style="text;html=1;align=center;verticalAlign=middle;whiteSpace=wrap;rounded=0;" vertex="1" parent="1">
          <mxGeometry x="-370" y="-174" width="280" height="60" as="geometry" />
        </mxCell>
        <mxCell id="wICCiyBY5Dh3nlVd2eu4-16" value="начало" style="ellipse;whiteSpace=wrap;html=1;" vertex="1" parent="1">
          <mxGeometry x="-610" y="-130" width="120" height="80" as="geometry" />
        </mxCell>
      </root>
    </mxGraphModel>
  </diagram>
</mxfile>
